<?xml version="1.0" standalone="no"?>
<!DOCTYPE svg PUBLIC "-//W3C//DTD SVG 20010904//EN"
 "http://www.w3.org/TR/2001/REC-SVG-20010904/DTD/svg10.dtd">
<svg version="1.0" xmlns="http://www.w3.org/2000/svg"
 width="397.000000pt" height="397.000000pt" viewBox="0 0 397.000000 397.000000"
 preserveAspectRatio="xMidYMid meet">
<metadata>
Created by potrace 1.11, written by Peter Selinger 2001-2013
</metadata>
<g transform="translate(0.000000,397.000000) scale(0.100000,-0.100000)"
fill="#000000" stroke="none">
<path d="M1675 3504 c-127 -130 -267 -273 -313 -320 -56 -56 -81 -88 -75 -96
4 -7 8 -15 8 -18 0 -3 12 -23 26 -45 14 -22 39 -64 55 -92 16 -29 32 -53 36
-53 4 0 118 112 255 249 l248 248 0 176 c0 96 -3 178 -5 181 -3 3 -109 -101
-235 -230z"/>
<path d="M2042 3710 c1 -17 -1 -33 -5 -36 -3 -3 -1 -18 3 -34 4 -16 5 -31 2
-35 -7 -7 -6 -91 2 -104 4 -5 2 -12 -4 -16 -6 -4 -7 -11 -4 -17 4 -6 6 -29 6
-51 -2 -39 2 -43 248 -289 138 -137 255 -246 260 -243 6 4 20 25 31 48 12 23
28 50 37 60 9 10 17 25 18 33 1 9 10 24 18 33 9 10 16 25 16 34 0 15 -122 143
-517 544 -56 56 -104 103 -107 103 -3 0 -4 -14 -4 -30z"/>
<path d="M2043 3102 c3 -18 2 -34 -2 -37 -5 -2 -5 -25 -1 -50 4 -24 4 -47 1
-50 -7 -7 -4 -91 3 -104 4 -5 2 -12 -4 -16 -6 -4 -8 -10 -5 -15 3 -5 7 -21 9
-37 2 -21 38 -63 141 -165 l138 -137 60 102 c33 56 62 108 64 115 3 8 -81 99
-202 219 -182 182 -206 203 -202 175z"/>
<path d="M1817 3031 c-48 -49 -87 -87 -87 -86 0 1 -51 -50 -114 -114 l-114
-115 17 -30 c9 -17 28 -49 42 -71 13 -22 33 -57 44 -77 11 -21 24 -38 29 -38
6 0 72 62 146 138 l136 137 -1 167 c0 92 -3 169 -6 172 -3 3 -45 -34 -92 -83z"/>
<path d="M790 2600 c-30 -32 -165 -172 -300 -310 -135 -139 -251 -258 -257
-266 -7 -7 -13 -14 -13 -16 0 -2 29 -3 65 -3 36 0 65 3 65 7 0 4 10 4 23 -1
12 -5 36 -7 52 -4 41 6 44 6 97 0 55 -6 43 -15 278 232 80 84 173 182 208 218
34 35 62 66 62 68 0 5 -196 124 -212 129 -7 2 -38 -22 -68 -54z"/>
<path d="M3010 2605 c-47 -30 -90 -59 -96 -64 -7 -5 -15 -7 -18 -4 -3 4 -6 1
-6 -6 0 -7 24 -36 53 -65 28 -29 104 -108 167 -176 63 -68 151 -160 195 -204
l80 -81 168 1 c92 1 170 4 173 7 4 3 -11 24 -32 45 -22 21 -147 150 -279 287
-279 288 -306 315 -314 314 -3 0 -44 -25 -91 -54z"/>
<path d="M1813 2424 c-50 -51 -88 -96 -85 -99 4 -4 18 -26 32 -50 14 -24 50
-86 80 -137 30 -51 57 -96 58 -100 6 -14 -25 -8 -38 7 -7 8 -16 13 -20 10 -5
-3 -10 -2 -12 2 -3 9 -84 63 -93 63 -4 0 -26 14 -50 30 -24 17 -48 30 -54 30
-6 0 -11 5 -11 10 0 17 -24 10 -52 -15 -16 -13 -28 -26 -28 -28 0 -2 -27 -33
-60 -67 -32 -35 -57 -66 -55 -69 5 -9 450 -5 465 4 9 6 11 4 5 -6 -6 -11 -5
-12 6 -1 11 10 14 62 14 253 0 132 -2 244 -5 248 -3 4 -46 -34 -97 -85z"/>
<path d="M2037 2514 c-3 -3 -4 -11 -2 -17 10 -28 13 -67 6 -71 -4 -3 -5 -26
-1 -51 4 -24 4 -47 1 -50 -7 -7 -4 -91 3 -104 4 -5 2 -12 -4 -16 -6 -4 -7 -11
-4 -17 4 -6 6 -46 6 -89 -1 -64 2 -79 14 -79 8 0 13 -4 10 -8 -6 -10 76 -8 92
2 7 4 12 4 12 -1 0 -4 22 -8 50 -8 27 0 50 3 50 7 0 4 10 4 23 -1 12 -5 36 -7
52 -4 37 5 37 5 112 0 34 -2 67 -1 72 2 5 3 -31 48 -79 99 -86 91 -89 93 -114
80 -22 -11 -163 -98 -238 -145 -15 -9 -30 -14 -33 -11 -4 4 17 46 46 95 116
194 120 204 107 221 -13 15 -129 131 -159 158 -9 8 -18 11 -22 8z"/>
<path d="M1208 2421 c-1 -5 -73 -83 -158 -172 -85 -89 -170 -178 -189 -198
l-33 -35 24 -7 c14 -4 38 -5 54 -2 16 2 40 4 54 3 94 -5 110 -5 110 2 0 4 11
3 25 -2 18 -7 25 -6 25 3 0 7 3 8 8 2 20 -28 35 -15 235 194 43 45 75 86 72
91 -3 6 -27 22 -53 37 -26 15 -65 39 -87 53 -47 32 -82 44 -87 31z"/>
<path d="M2678 2400 c-27 -17 -52 -30 -58 -30 -5 0 -10 -4 -10 -9 0 -5 -15
-16 -34 -25 -65 -31 -65 -39 2 -109 229 -237 215 -225 247 -220 17 2 41 4 55
3 94 -5 110 -5 110 2 0 4 10 4 23 -1 25 -9 57 -9 74 2 6 4 13 3 15 -3 1 -5 9
-6 15 -2 9 6 -10 31 -60 84 -267 281 -322 338 -327 338 -3 0 -26 -14 -52 -30z"/>
<path d="M230 1875 c0 -6 78 -90 173 -187 94 -97 234 -240 309 -318 l138 -142
57 33 c179 102 175 93 90 182 -40 41 -136 142 -214 224 -77 81 -155 162 -172
180 l-30 32 -176 3 c-112 2 -175 -1 -175 -7z"/>
<path d="M1427 1876 c-2 -5 35 -49 82 -98 79 -82 111 -104 111 -76 0 6 3 8 6
5 4 -4 21 4 38 16 34 24 63 42 86 53 8 4 17 10 20 13 3 4 22 15 43 26 20 11
37 24 37 29 0 5 3 6 7 3 3 -4 12 -2 20 5 29 24 22 -3 -16 -66 -23 -37 -41 -68
-41 -70 0 -2 -20 -37 -45 -77 -25 -40 -45 -77 -45 -82 0 -8 179 -192 181 -186
1 2 2 113 3 246 1 233 0 243 -19 253 -25 13 -464 19 -468 6z"/>
<path d="M2074 1881 c-32 -6 -44 -21 -35 -44 5 -12 6 -31 4 -42 -4 -23 -6 -75
-3 -90 1 -5 1 -14 0 -20 -4 -22 -1 -95 5 -105 3 -5 1 -10 -5 -10 -6 0 -8 -5
-4 -11 3 -6 6 -52 6 -102 l-1 -90 30 29 c17 16 60 57 95 92 60 59 63 64 52 90
-7 15 -18 34 -25 43 -7 8 -13 19 -13 24 0 5 -6 16 -14 24 -7 9 -28 43 -45 76
-18 32 -41 71 -52 86 -39 56 -26 50 147 -58 73 -45 137 -83 142 -83 7 0 67 61
181 185 5 5 -439 11 -465 6z"/>
<path d="M3283 1781 c-56 -58 -129 -135 -163 -171 -34 -36 -99 -105 -146 -153
-46 -48 -84 -92 -84 -97 0 -5 10 -12 22 -16 12 -3 26 -10 32 -15 20 -17 131
-85 148 -92 18 -6 34 9 342 327 48 50 138 141 198 203 l110 112 -156 3 c-86 2
-156 -1 -156 -6 0 -5 -7 -3 -15 4 -12 10 -15 10 -15 -1 0 -10 -3 -11 -8 -3 -4
8 -44 -27 -109 -95z"/>
<path d="M830 1875 c0 -6 62 -72 271 -288 l126 -130 101 62 c56 35 104 67 107
72 3 4 -39 54 -94 111 -54 57 -114 120 -133 141 l-35 37 -172 0 c-94 0 -171
-2 -171 -5z"/>
<path d="M2690 1779 c-52 -56 -114 -120 -136 -143 -35 -35 -40 -43 -28 -54 8
-7 14 -9 14 -5 0 4 4 3 8 -3 4 -6 47 -34 96 -64 l89 -53 90 94 c49 52 128 135
176 185 47 50 97 102 110 117 l24 27 -174 0 -174 0 -95 -101z"/>
<path d="M2182 1257 l-141 -142 0 -103 c1 -57 -1 -106 -4 -109 -3 -3 -1 -16 4
-30 5 -14 6 -31 1 -37 -4 -6 -6 -25 -3 -43 l6 -32 204 204 205 205 -17 32 c-9
18 -27 51 -41 73 -13 22 -35 59 -48 82 l-24 42 -142 -142z"/>
<path d="M1610 1363 c-19 -47 -34 -73 -42 -73 -5 0 -8 -5 -8 -10 0 -6 -12 -29
-26 -51 -14 -22 -24 -47 -22 -55 3 -14 387 -404 398 -404 3 0 6 79 5 175 l-1
175 -134 135 c-74 74 -140 135 -147 135 -6 0 -16 -12 -23 -27z"/>
<path d="M1391 981 c-12 -16 -21 -34 -21 -39 0 -6 -6 -17 -13 -24 -7 -7 -28
-39 -46 -71 l-33 -57 104 -106 c57 -58 176 -180 266 -272 90 -91 185 -190 212
-218 28 -29 51 -50 51 -46 5 27 3 356 -2 364 -9 14 -489 498 -494 498 -2 0
-13 -13 -24 -29z"/>
<path d="M2290 760 c-237 -237 -250 -252 -250 -287 0 -21 -1 -45 -1 -53 -1 -8
1 -27 4 -43 3 -15 2 -27 -2 -27 -4 0 -4 -24 -1 -52 4 -29 5 -54 1 -56 -7 -2
-1 -92 6 -92 5 0 147 143 474 478 l157 160 -49 83 c-26 46 -53 94 -58 106 -5
11 -14 24 -20 27 -6 4 -123 -106 -261 -244z"/>
</g>
</svg>
